<?xml version="1.0" encoding="UTF-8"?>
<svg width="72px" height="15px" viewBox="0 0 72 15" version="1.1" xmlns="http://www.w3.org/2000/svg" xmlns:xlink="http://www.w3.org/1999/xlink">
    <title>Pin Right</title>
    <g id="prototype-assets" stroke="none" stroke-width="1" fill="none" fill-rule="evenodd">
        <g id="Artboard" transform="translate(-286.000000, -182.000000)">
            <g id="Pin-Right" transform="translate(286.000000, 182.000000)">
                <g id="Battery" transform="translate(9.000000, 0.000000)">
                    <g transform="translate(36.000000, 1.500000)">
                        <path d="M20.7951435,0.5 C21.7679433,0.5 22.1277313,0.583615246 22.4852577,0.774822479 C22.804242,0.945417173 23.0545828,1.19575795 23.2251775,1.5147423 C23.4163848,1.87226874 23.5,2.23205669 23.5,3.2048565 L23.5,3.2048565 L23.5,9.57382015 C23.5,9.96764884 23.3403694,10.3241938 23.0822816,10.5822816 C22.8241938,10.8403694 22.4676488,11 22.0738202,11 L22.0738202,11 L3.2048565,11 C2.23205669,11 1.87226874,10.9163848 1.5147423,10.7251775 C1.19575795,10.5545828 0.945417173,10.304242 0.774822479,9.9852577 C0.583615246,9.62773126 0.5,9.26794331 0.5,8.2951435 L0.5,8.2951435 L0.5,3.2048565 C0.5,2.23205669 0.583615246,1.87226874 0.774822479,1.5147423 C0.945417173,1.19575795 1.19575795,0.945417173 1.5147423,0.774822479 C1.87226874,0.583615246 2.23205669,0.5 3.2048565,0.5 L3.2048565,0.5 Z" id="Border" stroke="#FFFFFF" opacity="0.4"></path>
                        <path d="M25.0004626,4.00011912 C25.8628415,4.22230136 26.5,5.00523813 26.5,5.93699126 C26.5,6.86874438 25.8628415,7.65168116 25.0004626,7.8738634 Z" id="Nub" fill="#FFFFFF" opacity="0.400000006"></path>
                        <path d="M2.5,2 L21.5,2 C21.7761424,2 22,2.22385763 22,2.5 L22,9 C22,9.27614237 21.7761424,9.5 21.5,9.5 L2.5,9.5 C2.22385763,9.5 2,9.27614237 2,9 L2,2.5 C2,2.22385763 2.22385763,2 2.5,2 Z" id="Charge" fill="#FFFFFF"></path>
                    </g>
                    <text id="100%" font-family="ArialMT, Arial" font-size="12" font-weight="normal" fill="#FFFFFF">
                        <tspan x="2.30859375" y="11.5">100%</tspan>
                    </text>
                </g>
                <polyline id="Bluetooth" points="0.5 4 6.5 9.5 3.5 12 3.5 2 6.5 4.5 0.5 10"></polyline>
            </g>
        </g>
    </g>
</svg>