<?xml version="1.0" encoding="UTF-8"?>
<svg width="334px" height="18px" viewBox="0 0 334 18" version="1.1" xmlns="http://www.w3.org/2000/svg" xmlns:xlink="http://www.w3.org/1999/xlink">
    <title>Group</title>
    <g id="Symbols" stroke="none" stroke-width="1" fill="none" fill-rule="evenodd">
        <g id="header" transform="translate(-26.000000, -8.000000)">
            <g id="Group" transform="translate(26.000000, 8.166667)">
                <g id="Pin-Right" transform="translate(262.000000, 0.000000)">
                    <g id="Battery" transform="translate(9.000000, 0.000000)">
                        <g transform="translate(36.000000, 1.500000)">
                            <path d="M20.7951435,0.5 C21.7679433,0.5 22.1277313,0.583615246 22.4852577,0.774822479 C22.804242,0.945417173 23.0545828,1.19575795 23.2251775,1.5147423 C23.4163848,1.87226874 23.5,2.23205669 23.5,3.2048565 L23.5,3.2048565 L23.5,9.57382015 C23.5,9.96764884 23.3403694,10.3241938 23.0822816,10.5822816 C22.8241938,10.8403694 22.4676488,11 22.0738202,11 L22.0738202,11 L3.2048565,11 C2.23205669,11 1.87226874,10.9163848 1.5147423,10.7251775 C1.19575795,10.5545828 0.945417173,10.304242 0.774822479,9.9852577 C0.583615246,9.62773126 0.5,9.26794331 0.5,8.2951435 L0.5,8.2951435 L0.5,3.2048565 C0.5,2.23205669 0.583615246,1.87226874 0.774822479,1.5147423 C0.945417173,1.19575795 1.19575795,0.945417173 1.5147423,0.774822479 C1.87226874,0.583615246 2.23205669,0.5 3.2048565,0.5 L3.2048565,0.5 Z" id="Border" stroke="#FFFFFF" opacity="0.4"></path>
                            <path d="M25.0004626,4.00011912 C25.8628415,4.22230136 26.5,5.00523813 26.5,5.93699126 C26.5,6.86874438 25.8628415,7.65168116 25.0004626,7.8738634 Z" id="Nub" fill="#FFFFFF" opacity="0.400000006"></path>
                            <path d="M2.5,2 L21.5,2 C21.7761424,2 22,2.22385763 22,2.5 L22,9 C22,9.27614237 21.7761424,9.5 21.5,9.5 L2.5,9.5 C2.22385763,9.5 2,9.27614237 2,9 L2,2.5 C2,2.22385763 2.22385763,2 2.5,2 Z" id="Charge" fill="#FFFFFF"></path>
                        </g>
                        <text id="100%" font-family="ArialMT, Arial" font-size="12" font-weight="normal" fill="#FFFFFF">
                            <tspan x="2.30859375" y="11.5">100%</tspan>
                        </text>
                    </g>
                    <polyline id="Bluetooth" points="0.5 4 6.5 9.5 3.5 12 3.5 2 6.5 4.5 0.5 10"></polyline>
                </g>
                <text id="Time" font-family="ArialMT, Arial" font-size="12" font-weight="normal" fill="#FFFFFF">
                    <tspan x="139.155273" y="12">9:41 AM</tspan>
                </text>
                <g id="Signal" transform="translate(0.000000, 2.000000)" fill="#FFFFFF">
                    <path d="M2,5.5 C2.55228475,5.5 3,5.94771525 3,6.5 L3,9 C3,9.55228475 2.55228475,10 2,10 L1,10 C0.44771525,10 6.76353751e-17,9.55228475 0,9 L0,6.5 C-6.76353751e-17,5.94771525 0.44771525,5.5 1,5.5 L2,5.5 Z M6.5,4 C7.05228475,4 7.5,4.44771525 7.5,5 L7.5,9 C7.5,9.55228475 7.05228475,10 6.5,10 L5.5,10 C4.94771525,10 4.5,9.55228475 4.5,9 L4.5,5 C4.5,4.44771525 4.94771525,4 5.5,4 L6.5,4 Z M11,2 C11.5522847,2 12,2.44771525 12,3 L12,9 C12,9.55228475 11.5522847,10 11,10 L10,10 C9.44771525,10 9,9.55228475 9,9 L9,3 C9,2.44771525 9.44771525,2 10,2 L11,2 Z M15.5,0 C16.0522847,-1.01453063e-16 16.5,0.44771525 16.5,1 L16.5,9 C16.5,9.55228475 16.0522847,10 15.5,10 L14.5,10 C13.9477153,10 13.5,9.55228475 13.5,9 L13.5,1 C13.5,0.44771525 13.9477153,1.01453063e-16 14.5,0 L15.5,0 Z" id="Mobile-Signal"></path>
                    <path d="M24.3295628,2.82956276 C26.2063161,1.07441257 28.7276868,8.8817842e-16 31.5,8.8817842e-16 C34.2723132,8.8817842e-16 36.7936839,1.07441257 38.6704372,2.82956276 L37.2552384,4.24476162 C35.7412564,2.85107918 33.7200183,2 31.5,2 C29.2799817,2 27.2587436,2.85107918 25.7447616,4.24476162 L24.3295628,2.82956276 L24.3295628,2.82956276 Z M26.8065309,5.30653087 C28.0481225,4.18377399 29.6942093,3.5 31.5,3.5 C33.3057907,3.5 34.9518775,4.18377399 36.1934691,5.30653087 L34.7767384,6.72326155 C33.8991992,5.96124278 32.7534641,5.5 31.5,5.5 C30.2465359,5.5 29.1008008,5.96124278 28.2232616,6.72326155 L26.8065309,5.30653087 Z M29.2877088,7.78770884 C29.890654,7.29532392 30.6608387,7 31.5,7 C32.3391613,7 33.109346,7.29532392 33.7122912,7.78770884 L31.5,10 L29.2877088,7.78770884 L29.2877088,7.78770884 Z" id="Wifi"></path>
                </g>
            </g>
        </g>
    </g>
</svg>